<svg width="25" height="25" viewBox="0 0 25 25" fill="none" xmlns="http://www.w3.org/2000/svg">
<path fill-rule="evenodd" clip-rule="evenodd" d="M4.0625 10.6084V8.13253C4.0625 5.97565 4.95145 3.90711 6.53379 2.38196C8.11613 0.856818 10.2622 0 12.5 0C14.7378 0 16.8839 0.856818 18.4662 2.38196C20.0486 3.90711 20.9375 5.97565 20.9375 8.13253V10.6084C22.3312 10.7084 23.2375 10.9614 23.9013 11.6012C25 12.659 25 14.3639 25 17.7711C25 21.1783 25 22.8831 23.9013 23.941C22.8038 25 21.035 25 17.5 25H7.5C3.965 25 2.19625 25 1.09875 23.941C-7.45058e-08 22.8831 0 21.1783 0 17.7711C0 14.3639 -7.45058e-08 12.659 1.09875 11.6012C1.76125 10.9614 2.66875 10.7084 4.0625 10.6084ZM5.9375 8.13253C5.9375 6.45496 6.6289 4.84609 7.85961 3.65987C9.09032 2.47364 10.7595 1.80723 12.5 1.80723C14.2405 1.80723 15.9097 2.47364 17.1404 3.65987C18.3711 4.84609 19.0625 6.45496 19.0625 8.13253V10.547C18.5842 10.543 18.0633 10.5414 17.5 10.5422H7.5C6.93583 10.5414 6.415 10.543 5.9375 10.547V8.13253Z" fill="black"/>
</svg>
